<svg xmlns="http://www.w3.org/2000/svg">

	<style>:root svg:not(:target) { display: none }</style>

 	<svg id="mobile" viewBox="0 0 34 39">
		<path fill="#FDC305" d="M6.07 21.72v-2.26c6.68-.92 13.42-1.36 20.17-1.33 0 .6 0 1.21-.06 1.82a25.52 25.52 0 0 1 6-1.82A16.67 16.67 0 0 0 .19 21.39l5.88.33ZM27.24 25.23c-1.16 1.28-1.39 1.2-1.39 3.45v9.18A16.64 16.64 0 0 0 33.32 24a17.3 17.3 0 0 0-.32-3.1 33.1 33.1 0 0 0-5.76 4.33ZM6.36 26.72s-3.79-1.44-5.19-1.83A8.54 8.54 0 0 0 0 24.61a16.65 16.65 0 0 0 8.68 14L6.36 26.72Z"/><path fill="#F06351" d="M26.29 18.12a89.8 89.8 0 0 0-1.4-16.47S24.75.36 24 1.41c-.59 1.25-1 2.58-1.2 3.94a70.34 70.34 0 0 0-12.77.34C9.24 3 7.85 1.75 7.18 2c-.67.25-.72 3.31-.72 3.31l-.33 14.1c6.68-.9 13.42-1.34 20.16-1.29Z"/><path fill="#000" d="M12.41 15c0-.09 1 .68 1.41.92.41.24.61.42.61.59 0 .17-.27.34-.63.34s-.91-.12-1-.27h1.23A8.34 8.34 0 0 1 12.41 15ZM19.89 15.11l-1.09 1.33c0 .06-.17.35.18.3.41-.06.82-.16 1.22-.29.11 0 .07-.19-.11-.17-.18.02-.69.05-1 .11l.84-1.26s.07-.13-.04-.02ZM16.75 21.2c.46-.2.85-.56 1.09-1 .28-.65 0-.91-.44-1-.6-.11-1.22.01-1.74.34-.39.36-.34.72-.05 1 .35.27.73.49 1.14.66Z"/><path fill="#F06351" d="M16.35 22.45c-.11.23-.27.43-.46.6-.28.23-.63.36-1 .38a2.15 2.15 0 0 1-1.47-.43 2.3 2.3 0 0 1-.53-.44c-.1-.11-.22-.2-.36-.26 0 0 .75 4.1 2.57 4.75 1.82.65 2.14-.75 2.2-1.13a5.61 5.61 0 0 0-.82-3.23c-.02-.31-.03-.11-.13-.24Z"/><path fill="#000" d="M14.71 23.59a3.44 3.44 0 0 1-2.36-1.47.14.14 0 0 1 .03-.15.14.14 0 0 1 .2 0c.5.7 1.26 1.16 2.11 1.3a2.1 2.1 0 0 0 1.63-1l.14-.19.1.21s.37.76 1 .8c.63.04 1.05-.41 1.61-1.28a.14.14 0 0 1 .2 0 .15.15 0 0 1 .05.2c-.64 1-1.27 1.44-1.88 1.4a1.55 1.55 0 0 1-1.12-.76 2.26 2.26 0 0 1-1.71.94Z"/><path fill="#F06351" d="M26.24 19.92a58.63 58.63 0 0 0-5.07 5.19A31.63 31.63 0 0 1 15.88 30c-.22-.53-1.62-1.51-1.62-1.51s-3.13-2.14-5.18-3.82a34.14 34.14 0 0 1-3.13-3l-2-.11c2.89 4.2 7.12 7.3 12 8.8.86-.14 3.27-1.86 5.07-3.26a58.13 58.13 0 0 0 5.94-5.89c.5-.59.89-1.27 1.14-2-1.1.39-1.86.71-1.86.71Z"/>
	</svg>

 	<svg id="tablet" viewBox="0 0 61 51">
		<path fill="#FDC305" d="M51.58 19.85a22.23 22.23 0 0 0-6.93-9.09 21.96 21.96 0 0 0-21.79-2.93 22.08 22.08 0 0 0-9.05 6.94 22.35 22.35 0 0 0-3.06 21.95 22.24 22.24 0 0 0 6.81 9.18A21.97 21.97 0 0 0 28 50.44c-.5-1.82-1-3.82-1.45-5.95 1.3.85 2.67 1.6 4.1 2.21 0 0 .1 1.88.24 3.97 1.54.03 3.08-.1 4.6-.4a1.87 1.87 0 0 1 0-.66c.24-1.63.93-4.56 1.07-6.44 1-.94 1.83-2.03 2.5-3.23l-.05.39c-.48 3.7-1.47 7.65-2.07 8.75-.2.36-.44.7-.72 1a22 22 0 0 0 14.61-11.53 22.43 22.43 0 0 0 .75-18.7Zm-1.26 3.3c-.38.37-1.17.62-1.3-.5-.13-1.14-.16-1.93-.16-1.93s-1.66-2.98-2.28-3.01c-.62-.04-5.03 3.01-6.19 4.34-1 1.12-1.2 1.05-1.2 3.02 0 1.48.19 7.1.08 11.39l-7.02 1.88c-2.2.64-4.45 1.14-6.72 1.5l-.86-5.07h-.12l-2.21-11.44s-3.29-1.25-4.5-1.59a3.21 3.21 0 0 0-3.44.55 4.4 4.4 0 0 0-1.49 3.34c.18.4.32.83.42 1.26.04.42-1.04.38-1.73.38s-.79-1.26-.25-2.72c.43-1.13.95-2.22 1.57-3.25.47-.93 1.07-1.77 1.78-2.51 0 0 .12-.3 1.08-.21.96.08 6.27.37 6.27.37l.05-1.97c5.77-.8 11.6-1.2 17.43-1.17v1.6c2.2-1.02 4.59-1.61 7.01-1.74a.78.78 0 0 1 .67.33c.29.38 2.07 2.61 2.28 2.93.58.84 1.1 1.7 1.57 2.61a5.44 5.44 0 0 1-.74 1.6Z"/><path fill="#F06351" d="m48.45 18.12.86 1.12c.58.84 1.1 1.7 1.58 2.61a5.44 5.44 0 0 1-.74 1.55c-.38.37-1.17.62-1.3-.5-.12-1.14-.18-1.88-.18-1.88S47.01 18.04 46.4 18c-.62-.03-5.02 3.02-6.18 4.34C39.2 23.47 39 23.4 39 25.36c0 1.3.15 5.78.11 9.76 1.56.17 3.85.6 4.54 1.63 0 0-.25-6.24 6.73-2.97 0 0 .24-8.5 9.87-6.33a37.71 37.71 0 0 0-11.8-9.33ZM39.57 15.81C39.6 11 39.2 6.2 38.36 1.45c0 0-.13-1.13-.75-.2-.51 1.1-.86 2.26-1.03 3.47a60.54 60.54 0 0 0-11.05.3c-.7-2.4-1.91-3.48-2.49-3.2-.57.3-.64 2.85-.64 2.85l-.29 12.3c5.79-.8 11.62-1.19 17.46-1.16Z"/><path fill="#E55645" d="M39.07 39.94c.1-.93.17-2.16.2-3.52l-7.02 1.88c-2.2.65-4.45 1.17-6.72 1.54l.96 4.34c0 .1 0 .2.06.29 1.3.85 2.67 1.6 4.1 2.22 2.08-1 4.07-2.21 5.93-3.6v.06c.98-.93 1.82-2.01 2.49-3.2Z"/><path fill="#000" d="M27.57 13.1c-.05-.1.86.58 1.21.8.35.2.53.36.53.5 0 .15-.23.3-.54.3-.3 0-.8-.1-.86-.22-.07-.13.52 0 .81 0h.25c-.53-.4-1-.86-1.4-1.39ZM34.03 13.19s-.87 1.11-.94 1.16c-.08.06-.15.3.16.26.36-.06.7-.14 1.05-.25.1-.05.06-.17-.1-.15-.17.01-.59.04-.86.1l.73-1.11s.03-.1-.04-.01ZM31.32 18.5c.4-.18.73-.48.94-.87.24-.57 0-.8-.38-.87a2.1 2.1 0 0 0-1.5.3c-.34.32-.3.63 0 .87.28.23.6.42.94.57Z"/><path fill="#F06351" d="M31.01 19.6a1.48 1.48 0 0 1-1.26.85c-.47.04-.94-.1-1.32-.39-.18-.1-.33-.23-.46-.39a.86.86 0 0 0-.3-.22c-.01 0 .64 3.58 2.2 4.15 1.57.57 1.86-.66 1.9-1 .06-.98-.19-1.96-.7-2.8 0-.27-.02-.1-.06-.2Z"/><path fill="#000" d="M29.55 20.58a3 3 0 0 1-2.03-1.24.13.13 0 0 1 0-.17.12.12 0 0 1 .09-.04.12.12 0 0 1 .08.04 2.78 2.78 0 0 0 1.82 1.14 1.8 1.8 0 0 0 1.42-.87l.12-.17.08.2s.33.65.86.69c.54.03.92-.37 1.4-1.12a.12.12 0 0 1 .17-.03.13.13 0 0 1 .04.17c-.57.85-1.11 1.26-1.62 1.22a1.33 1.33 0 0 1-.97-.63 1.95 1.95 0 0 1-1.46.81Z"/><path fill="#FDC305" d="M31.24 32.28a3.24 3.24 0 0 0 3.23-3.26c0-1.8-1.45-3.26-3.23-3.26A3.24 3.24 0 0 0 28 29.02c0 1.8 1.44 3.26 3.23 3.26Z"/><path fill="#111" d="m35.52 26.37-2.7 1.14 1-4.9-6.47 8.49 2.7-1.14-1 4.9 6.47-8.49Zm-6.37 3.33 3.58-4.7-.7 3.47 1.73-.7-3.61 4.7.7-3.47-1.7.7ZM27.94 28.42c.54 0 .97-.43.97-.97a.97.97 0 0 0-.97-.97.97.97 0 0 0-.96.97c0 .54.43.97.96.97ZM33.56 31.95c.38 0 .68-.3.68-.69 0-.38-.3-.68-.68-.68a.68.68 0 0 0 0 1.37ZM34.39 30.06a.3.3 0 0 0 .3-.3.3.3 0 0 0-.3-.3.3.3 0 0 0-.3.3c0 .17.13.3.3.3Z"/><path fill="#F06351" d="M39.52 17.39a49.73 49.73 0 0 0-4.38 4.52 27.56 27.56 0 0 1-4.58 4.26c-.19-.46-1.4-1.32-1.4-1.32s-2.7-1.87-4.48-3.34c-.96-.8-1.86-1.67-2.7-2.6l-1.73-.1A19.5 19.5 0 0 0 30.6 26.5c.74-.12 2.82-1.62 4.38-2.85a49.89 49.89 0 0 0 5.17-5.13c.43-.52.76-1.1.98-1.74-.98.33-1.6.62-1.6.62ZM22.34 23.33s-3.29-1.25-4.5-1.59a3.21 3.21 0 0 0-3.44.55 4.4 4.4 0 0 0-1.49 3.34c.18.4.32.83.42 1.26.04.42-1.04.38-1.73.38s-.79-1.26-.25-2.72a19.9 19.9 0 0 1 1.57-3.25C8.22 23.76 0 29.46 0 29.46c2.35-.14 4.71-.07 7.06.21 4.52.46 4.3 4.06 4.3 4.06 1.6-.44 3.21-.76 4.85-.96 1.83-.13 1.96 1.84 1.96 1.84l.45 3.35a15.8 15.8 0 0 1 2.29-2.05 5.19 5.19 0 0 1 3.77-1.13l-2.34-11.45Z"/>
	</svg>

	<svg id="desktop" viewBox="0 0 71 59">
		<path fill="#FDC305" d="M59.88 23.8a25.43 25.43 0 0 0-8.05-10.37 25.72 25.72 0 0 0-25.29-3.35A25.59 25.59 0 0 0 16.03 18a25.3 25.3 0 0 0-3.55 25.05 25.42 25.42 0 0 0 7.9 10.49 25.72 25.72 0 0 0 12.13 5.18c-.58-2.07-1.17-4.36-1.69-6.8 1.51.98 3.1 1.83 4.76 2.54 0 0 .12 2.14.28 4.53 1.79.03 3.58-.13 5.33-.47a2.1 2.1 0 0 1 0-.75c.3-1.85 1.1-5.2 1.25-7.35a15.11 15.11 0 0 0 2.9-3.68l-.06.44c-.55 4.22-1.7 8.74-2.4 9.98-.23.42-.5.8-.83 1.15a25.73 25.73 0 0 0 16.96-13.16 25.27 25.27 0 0 0 .87-21.34Zm-1.47 3.77c-.44.42-1.35.71-1.5-.58-.15-1.29-.19-2.2-.19-2.2s-1.93-3.4-2.65-3.43c-.72-.04-5.83 3.44-7.18 4.96-1.17 1.28-1.4 1.19-1.4 3.44 0 1.7.22 8.1.1 13l-8.15 2.15c-2.56.73-5.17 1.3-7.8 1.71l-1-5.78h-.14l-2.57-13.07s-3.8-1.42-5.2-1.81a3.79 3.79 0 0 0-4.01.62 5.03 5.03 0 0 0-1.73 3.82c.21.46.37.95.48 1.44.05.48-1.2.43-2 .43s-.92-1.43-.29-3.1c.5-1.3 1.1-2.54 1.82-3.72a11.78 11.78 0 0 1 2.07-2.86s.14-.34 1.25-.24c1.11.1 7.28.42 7.28.42l.05-2.25c6.7-.92 13.47-1.36 20.24-1.33v1.82a22.67 22.67 0 0 1 8.14-1.98.92.92 0 0 1 .77.38c.34.43 2.41 2.98 2.65 3.34.67.96 1.29 1.95 1.83 2.98a6.17 6.17 0 0 1-.87 1.83Z"/><path fill="#F06351" d="m56.46 21.5 1 1.27c.68.96 1.29 1.95 1.83 2.98a6.17 6.17 0 0 1-.86 1.77c-.44.42-1.35.71-1.5-.58a52.31 52.31 0 0 1-.2-2.14s-1.94-3.4-2.66-3.44c-.72-.04-5.83 3.44-7.18 4.96-1.17 1.28-1.4 1.19-1.4 3.44 0 1.49.17 6.6.13 11.14 1.81.2 4.47.7 5.27 1.86 0 0-.29-7.12 7.81-3.39 0 0 .28-9.71 11.46-7.22a43.67 43.67 0 0 0-13.7-10.65ZM45.93 19.2c.04-5.5-.43-11-1.4-16.4 0 0-.15-1.3-.87-.24-.6 1.26-1 2.6-1.2 3.97a71.46 71.46 0 0 0-12.82.33c-.82-2.72-2.22-3.96-2.89-3.64-.67.33-.75 3.26-.75 3.26l-.33 14.04c6.71-.92 13.49-1.36 20.26-1.33Z"/><path fill="#E55645" d="M45.35 46.74c.13-1.06.2-2.47.24-4.03l-8.15 2.16a64.43 64.43 0 0 1-7.8 1.75l1.11 4.96c0 .11 0 .22.07.33a32.4 32.4 0 0 0 4.76 2.53 42.48 42.48 0 0 0 6.88-4.1v.06a15.12 15.12 0 0 0 2.9-3.66Z"/><path fill="#000" d="M32 16.09c-.05-.1 1 .67 1.41.91.41.24.61.42.61.59 0 .17-.26.33-.62.33s-.92-.11-1-.25c-.08-.14.6 0 .94 0h.3A8.05 8.05 0 0 1 32 16.09ZM39.5 16.2s-1 1.27-1.09 1.33c-.09.06-.17.33.2.29.4-.07.81-.16 1.21-.28.11-.06.07-.2-.12-.18-.19.02-.68.05-1 .1l.85-1.25s.03-.12-.05-.01ZM36.36 22.26c.47-.2.85-.55 1.1-1 .27-.65 0-.9-.45-.99-.6-.1-1.23.02-1.75.34-.39.37-.34.73 0 1 .34.26.7.48 1.1.65Z"/><path fill="#F06351" d="M36 23.5c-.11.23-.27.44-.46.6-.28.23-.63.36-1 .38a2.2 2.2 0 0 1-1.54-.44 2 2 0 0 1-.53-.44 1 1 0 0 0-.36-.25s.75 4.08 2.57 4.73c1.82.66 2.16-.75 2.21-1.13a5.55 5.55 0 0 0-.82-3.21c0-.3-.02-.1-.07-.23Z"/><path fill="#000" d="M34.3 24.64a3.52 3.52 0 0 1-2.35-1.42.15.15 0 0 1 0-.2.14.14 0 0 1 .16-.03l.04.03a3.2 3.2 0 0 0 2.11 1.3 2.12 2.12 0 0 0 1.64-.99l.14-.19.1.22s.38.75 1 .8c.62.03 1.06-.42 1.63-1.29a.14.14 0 0 1 .2-.04.14.14 0 0 1 .04.2c-.67.97-1.3 1.44-1.89 1.4a1.56 1.56 0 0 1-1.12-.72 2.25 2.25 0 0 1-1.7.93Z"/><path fill="#FDC305" d="M36.26 38a3.73 3.73 0 0 0 3.75-3.73 3.73 3.73 0 0 0-3.75-3.72 3.73 3.73 0 0 0-3.75 3.72A3.73 3.73 0 0 0 36.26 38Z"/><path fill="#111" d="m41.23 31.25-3.13 1.3 1.15-5.59-7.5 9.68 3.13-1.3-1.15 5.6 7.5-9.7Zm-7.39 3.8L38 29.67l-.8 3.97 2-.82-4.2 5.38.81-3.97-1.97.8ZM32.44 33.59c.62 0 1.12-.5 1.12-1.11 0-.62-.5-1.12-1.12-1.12a1.12 1.12 0 1 0 0 2.22ZM38.96 37.61c.44 0 .8-.35.8-.78a.79.79 0 0 0-.8-.78.79.79 0 0 0-.79.78c0 .43.36.78.8.78ZM39.92 35.46c.2 0 .35-.15.35-.35 0-.19-.15-.34-.35-.34-.2 0-.35.15-.35.34 0 .2.16.35.35.35Z"/><path fill="#F06351" d="M45.88 20.99a57.22 57.22 0 0 0-5.09 5.17 31.79 31.79 0 0 1-5.3 4.86c-.23-.53-1.64-1.51-1.64-1.51s-3.14-2.13-5.2-3.8a31.78 31.78 0 0 1-3.14-2.98l-2-.11a22.62 22.62 0 0 0 12 8.76c.86-.13 3.28-1.85 5.1-3.25a57.44 57.44 0 0 0 6-5.86c.49-.59.88-1.26 1.13-1.98-1.14.37-1.86.7-1.86.7Z"/><path fill="#FDC305" d="m65.22 3.47-8.46 9.37-1.22-1.98L63.7 0l1.53 3.47ZM62.65 17.12l5.54-4.08-.78-3.7-5.4 4.77.64 3.01ZM59.92 48.97l6.13 3.16 3.01-2.33-6.69-2.72-2.45 1.9ZM1.95 5.92 5.02 2.6l9.29 8.93-1.22 2.26L1.95 5.92ZM7.38 16.15l-4.7-3.1-2.4 3.83 5.15 2.38 1.95-3.11ZM13.91 52.13l-4.55 3.32 2.8 3.55 4.02-3.99-2.27-2.88Z"/><path fill="#F06351" d="M25.93 27.77s-3.8-1.42-5.2-1.81a3.79 3.79 0 0 0-4 .62 5.03 5.03 0 0 0-1.74 3.82c.21.46.37.95.48 1.44.05.48-1.2.43-2 .43s-.92-1.43-.29-3.1c.5-1.3 1.1-2.54 1.82-3.72-5.45 2.82-15 9.33-15 9.33a46.2 46.2 0 0 1 8.19.24c5.25.52 5 4.63 5 4.63 1.85-.5 3.73-.88 5.63-1.1 2.12-.14 2.27 2.1 2.27 2.1l.53 3.83c.8-.87 1.7-1.65 2.65-2.34a6.1 6.1 0 0 1 4.38-1.3l-2.72-13.07Z"/>
	</svg>

	<svg id="type-mobile" viewBox="0 0 101 18">
		<path fill="var(--fill)" d="M1.26 16.54A6.86 6.86 0 0 1 0 12.24v-6.4C-.1 4.3.3 2.77 1.19 1.47 2.05.46 3.39 0 5.37 0 7.35 0 8.61.46 9.4 1.3a5.42 5.42 0 0 1 1.19 3.78v1.54H6.72V4.85a3.7 3.7 0 0 0-.24-1.54 1.16 1.16 0 0 0-1.1-.62c-.56 0-.95.16-1.11.54a4.85 4.85 0 0 0-.24 1.7v8.22c-.04.56.07 1.12.32 1.62.15.38.55.54 1.1.54.56 0 .87-.16 1.03-.54.18-.52.26-1.07.24-1.62v-1.84h3.87v1.54a5.77 5.77 0 0 1-1.19 3.84c-.79.93-2.13 1.39-4.03 1.39-1.9-.08-3.32-.54-4.1-1.54ZM15.25.23h4.5l3.33 17.54h-3.64l-.63-3.7h-2.6l-.64 3.7h-3.72L15.25.23Zm3.24 11.54-.95-6.85-.94 6.85h1.9ZM25.84 3.15h-2.68V.23h9.4v2.85h-2.69v14.69h-4.03V3.15ZM39.75.23h6.96v1.85h-4.5v5.77h3.63v1.77H42.2v6.46h4.5v1.77h-7.03V.23h.08ZM48.76.23h1.74l5.14 11.62V.23h2.05v17.54h-1.58l-5.21-12v12h-2.14V.23ZM60.06.23h6.96v1.85h-4.5v5.77h3.63v1.77H62.5v6.46h4.5v1.77h-6.95V.23ZM69.07.23h3.64c1.43-.1 2.85.28 4.03 1.08C77.6 2 78 3.23 78 4.85c0 2.23-.7 3.61-2.21 4.07l2.53 8.77h-2.45L73.5 9.46h-1.98v8.23H69V.23h.08Zm3.48 7.54c.81.06 1.63-.15 2.3-.62.47-.38.7-1.15.7-2.3a4.85 4.85 0 0 0-.23-1.7c-.18-.39-.49-.71-.87-.92a3.69 3.69 0 0 0-1.74-.3h-1.1v5.76h.94v.08ZM81.16 16.46a7.61 7.61 0 0 1-1.1-4.46V6.15c-.02-1.11.11-2.22.4-3.3.26-.81.78-1.51 1.5-2 .88-.51 1.9-.75 2.92-.7 1.66 0 2.84.39 3.55 1.23a5.77 5.77 0 0 1 1.11 3.85v.62h-2.37V5.3c0-.65-.05-1.29-.16-1.93-.06-.4-.3-.76-.63-1a2.5 2.5 0 0 0-1.5-.38 2.42 2.42 0 0 0-1.58.46 1.75 1.75 0 0 0-.63 1.23c-.1.69-.16 1.38-.16 2.08v6.54c-.06 1 .1 2 .47 2.92.32.62.95.85 1.9.85a1.96 1.96 0 0 0 1.9-.93c.41-.97.6-2.02.55-3.07v-1.23h-2.3V9.08h4.59v8.69h-1.58l-.24-2c-.2.67-.64 1.25-1.22 1.66-.6.4-1.3.6-2.02.57a4.05 4.05 0 0 1-3.4-1.54ZM94.68 11.62 90.8.3h2.37l2.76 8.46L98.63.3H101l-3.87 11.3v6.16h-2.37v-6.15h-.08Z"/>
	</svg>

	<svg id="type-tablet" viewBox="0 0 102 20">
		<path fill="#111" d="M1.79 17.5a7.25 7.25 0 0 1-1.2-4.52V6.47C.46 4.86.88 3.26 1.76 1.9 2.57.88 3.93.36 5.87.37c1.92 0 3.23.46 3.91 1.36a5.88 5.88 0 0 1 1.15 3.9v1.53H7.36V5.5c0-.43-.04-.87-.1-1.3-.05-.31-.2-.6-.41-.83a1.34 1.34 0 0 0-1-.32 1.25 1.25 0 0 0-1.29.65 4.8 4.8 0 0 0-.29 1.92v8.27c-.04.65.08 1.3.34 1.91a1.28 1.28 0 0 0 1.25.63 1.15 1.15 0 0 0 1.2-.64c.21-.61.3-1.26.27-1.9v-1.74h3.56v1.5a6.34 6.34 0 0 1-1.05 4.01c-.76.96-2.07 1.42-3.93 1.42-1.86 0-3.32-.52-4.12-1.59ZM15.79.62h4.08l3.45 18.25h-3.4l-.6-4.03h-2.87l-.69 4h-3.44L15.79.62Zm3.14 11.92-1.08-7.33-1.08 7.33h2.16ZM25.96 3.37h-2.79V.62h9.23v2.75h-2.75v15.47h-3.7l.01-15.47Z"/>
		<path fill="#444" d="M39.65.62h7v1.9h-4.48v6.02h3.64v1.8h-3.64v6.68h4.53v1.82h-7.05V.62ZM48.73.62h1.72l5.17 12.1V.62h2.1v18.25h-1.6L50.93 6.42v12.42h-2.13L48.73.62ZM60.5.62h7v1.9h-4.48v6.02h3.67v1.8h-3.64v6.68h4.5v1.82h-7.04V.62ZM69.58.62h3.63a6 6 0 0 1 4.02 1.14c.86.75 1.29 1.99 1.29 3.7 0 2.32-.75 3.73-2.23 4.25l2.58 9.13h-2.45l-2.36-8.55H72.1v8.55h-2.52V.62Zm3.44 7.82c.83.08 1.66-.15 2.33-.66a3.11 3.11 0 0 0 .7-2.35 5.12 5.12 0 0 0-.25-1.74 1.64 1.64 0 0 0-.86-.94 4.07 4.07 0 0 0-1.76-.3h-1.11v6.03l.95-.04ZM81.91 17.5a8.1 8.1 0 0 1-1.1-4.65V6.76c-.02-1.17.12-2.34.44-3.47a3.9 3.9 0 0 1 1.5-2.1 5.06 5.06 0 0 1 2.9-.73 4.5 4.5 0 0 1 3.6 1.29 6.12 6.12 0 0 1 1.1 4.02v.68h-2.37V5.9c.01-.68-.04-1.36-.16-2.02-.08-.43-.31-.8-.65-1.07a2.57 2.57 0 0 0-1.49-.36 2.16 2.16 0 0 0-1.55.5c-.36.33-.6.79-.67 1.28-.1.71-.16 1.44-.14 2.16v6.77c-.07 1.03.1 2.06.5 3a2.44 2.44 0 0 0 3.01.65c.34-.18.62-.42.84-.72.42-1 .6-2.09.53-3.17v-1.29h-2.3v-1.8h4.57v9.02h-1.56l-.25-2.1a3.2 3.2 0 0 1-3.2 2.33 3.98 3.98 0 0 1-3.55-1.58ZM95.71 12.41 91.81.62h2.34l2.77 8.8 2.72-8.8H102l-3.88 11.8v6.42h-2.41v-6.43Z"/>
	</svg>
</svg>
